<?xml version="1.0" standalone="no"?>
<!DOCTYPE svg PUBLIC "-//W3C//DTD SVG 20010904//EN"
 "http://www.w3.org/TR/2001/REC-SVG-20010904/DTD/svg10.dtd">
<svg version="1.0" xmlns="http://www.w3.org/2000/svg"
 width="32.000000pt" height="32.000000pt" viewBox="0 0 32.000000 32.000000"
 preserveAspectRatio="xMidYMid meet">
<g transform="translate(0.000000,32.000000) scale(0.100000,-0.100000)"
fill="#000000" stroke="none">
<path d="M37 313 c-17 -4 -37 -40 -37 -64 0 -14 35 12 60 44 21 27 17 30 -23
20z"/>
<path d="M259 292 c12 -18 32 -37 43 -43 19 -10 20 -9 14 17 -9 36 -14 41 -50
50 l-30 7 23 -31z"/>
<path d="M127 239 c-10 -6 -31 -7 -48 -4 -43 10 -69 -16 -69 -69 0 -23 7 -52
16 -65 16 -22 22 -23 95 -19 43 3 84 1 91 -3 19 -12 46 8 68 51 37 72 23 109
-40 108 -19 0 -49 2 -65 5 -17 3 -38 1 -48 -4z m80 -56 l16 -38 13 32 c15 34
34 52 34 31 0 -24 -35 -98 -46 -98 -13 0 -55 95 -46 104 10 10 13 7 29 -31z
m-122 -3 c9 -16 18 -30 20 -30 2 0 11 14 20 30 23 44 35 37 35 -20 0 -27 -4
-50 -10 -50 -5 0 -10 12 -10 28 l-1 27 -15 -27 c-8 -16 -17 -28 -19 -28 -2 0
-11 12 -19 28 l-15 27 -1 -27 c0 -16 -4 -28 -10 -28 -5 0 -10 23 -10 50 0 57
12 64 35 20z"/>
<path d="M4 55 c9 -35 13 -40 43 -50 37 -11 25 17 -26 60 l-24 20 7 -30z"/>
<path d="M282 52 c-34 -32 -43 -58 -16 -48 9 3 20 6 25 6 11 0 31 48 26 63 -1
5 -17 -4 -35 -21z"/>
</g>
</svg>
